HIERARCHY
ROOT Hips
{
	OFFSET 0.000000 0.000000 0.000000
	CHANNELS 6 Xposition Yposition Zposition Zrotation Yrotation Xrotation 
	JOINT LHipJoint
	{
		OFFSET 0.000000 0.000000 0.000000
		CHANNELS 3 Zrotation Yrotation Xrotation
		JOINT LeftUpLeg
		{
			OFFSET 1.363060 -1.794630 0.839290
			CHANNELS 3 Zrotation Yrotation Xrotation
			JOINT LeftLeg
			{
				OFFSET 2.448110 -6.726130 0.000000
				CHANNELS 3 Zrotation Yrotation Xrotation
				JOINT LeftFoot
				{
					OFFSET 2.562200 -7.039590 0.000000
					CHANNELS 3 Zrotation Yrotation Xrotation
					JOINT LeftToeBase
					{
						OFFSET 0.157640 -0.433110 2.322550
						CHANNELS 3 Zrotation Yrotation Xrotation
						End Site
						{
							OFFSET 0.000000 0.000000 0.000000
						}
					}
				}
			}
		}
	}
	JOINT RHipJoint
	{
		OFFSET 0.000000 0.000000 0.000000
		CHANNELS 3 Zrotation Yrotation Xrotation
		JOINT RightUpLeg
		{
			OFFSET -1.305520 -1.794630 0.839290
			CHANNELS 3 Zrotation Yrotation Xrotation
			JOINT RightLeg
			{
				OFFSET -2.542530 -6.985550 0.000000
				CHANNELS 3 Zrotation Yrotation Xrotation
				JOINT RightFoot
				{
					OFFSET -2.568260 -7.056230 0.000000
					CHANNELS 3 Zrotation Yrotation Xrotation
					JOINT RightToeBase
					{
						OFFSET -0.164730 -0.452590 2.363150
						CHANNELS 3 Zrotation Yrotation Xrotation
						End Site
						{
							OFFSET 0.000000 0.000000 0.000000
						}
					}
				}
			}
		}
	}
	JOINT LowerBack
	{
		OFFSET 0.000000 0.000000 0.000000
		CHANNELS 3 Zrotation Yrotation Xrotation
		JOINT Spine
		{
			OFFSET 0.028270 2.035590 -0.193380
			CHANNELS 3 Zrotation Yrotation Xrotation
			JOINT Spine1
			{
				OFFSET 0.056720 2.048850 -0.042750
				CHANNELS 3 Zrotation Yrotation Xrotation
				JOINT Neck
				{
					OFFSET 0.000000 0.000000 0.000000
					CHANNELS 3 Zrotation Yrotation Xrotation
					JOINT Neck1
					{
						OFFSET -0.054170 1.746240 0.172020
						CHANNELS 3 Zrotation Yrotation Xrotation
						JOINT Head
						{
							OFFSET 0.104070 1.761360 -0.123970
							CHANNELS 3 Zrotation Yrotation Xrotation
							End Site
							{
								OFFSET 0.000000 0.000000 0.000000
							}
						}
					}
				}
				JOINT LeftShoulder
				{
					OFFSET 0.000000 0.000000 0.000000
					CHANNELS 3 Zrotation Yrotation Xrotation
					JOINT LeftArm
					{
						OFFSET 3.362410 1.200890 -0.311210
						CHANNELS 3 Zrotation Yrotation Xrotation
						JOINT LeftForeArm
						{
							OFFSET 4.983000 -0.000000 -0.000000
							CHANNELS 3 Zrotation Yrotation Xrotation
							JOINT LeftHand
							{
								OFFSET 3.483560 -0.000000 -0.000000
								CHANNELS 3 Zrotation Yrotation Xrotation
								JOINT LeftFingerBase
								{
									OFFSET 0.000000 0.000000 0.000000
									CHANNELS 3 Zrotation Yrotation Xrotation
									JOINT LeftHandIndex1
									{
										OFFSET 0.715260 -0.000000 -0.000000
										CHANNELS 3 Zrotation Yrotation Xrotation
										End Site
										{
											OFFSET 0.000000 0.000000 0.000000
										}
									}
								}
								JOINT LThumb
								{
									OFFSET 0.000000 0.000000 0.000000
									CHANNELS 3 Zrotation Yrotation Xrotation
									End Site
									{
										OFFSET 0.000000 0.000000 0.000000
									}
								}
							}
						}
					}
				}
				JOINT RightShoulder
				{
					OFFSET 0.000000 0.000000 0.000000
					CHANNELS 3 Zrotation Yrotation Xrotation
					JOINT RightArm
					{
						OFFSET -3.136600 1.374050 -0.404650
						CHANNELS 3 Zrotation Yrotation Xrotation
						JOINT RightForeArm
						{
							OFFSET -5.241900 -0.000000 -0.000000
							CHANNELS 3 Zrotation Yrotation Xrotation
							JOINT RightHand
							{
								OFFSET -3.444170 -0.000000 -0.000000
								CHANNELS 3 Zrotation Yrotation Xrotation
								JOINT RightFingerBase
								{
									OFFSET 0.000000 0.000000 0.000000
									CHANNELS 3 Zrotation Yrotation Xrotation
									JOINT RightHandIndex1
									{
										OFFSET -0.622530 -0.000000 -0.000000
										CHANNELS 3 Zrotation Yrotation Xrotation
										End Site
										{
											OFFSET 0.000000 0.000000 0.000000
										}
									}
								}
								JOINT RThumb
								{
									OFFSET 0.000000 0.000000 0.000000
									CHANNELS 3 Zrotation Yrotation Xrotation
									End Site
									{
										OFFSET 0.000000 0.000000 0.000000
									}
								}
							}
						}
					}
				}
			}
		}
	}
}
MOTION
Frames: 4
Frame Time: 0.008333
-12.649843 15.813251 -0.168963 -142.553077 89.706918 -115.428839 -12.734618 1.279476 -5.148097 -6.962473 13.274208 -26.870515 -1.088222 3.730711 56.874474 0.135087 -1.941349 -7.601526 0.061700 0.000000 -77.604500 7.091474 0.513649 -0.590108 17.505807 3.414376 -66.710067 2.088485 -4.449658 48.633670 -1.417170 -3.214108 -11.366862 -0.058600 -0.000000 -1.284500 6.040546 -3.373484 8.434630 0.676050 -3.360960 -1.089784 -5.318505 -3.344531 0.405993 8.191195 -13.875666 -11.620726 -2.626145 -0.121645 -1.508954 0.000000 0.000000 0.000000 6.550438 8.738384 1.874462 -56.308978 2.907956 2.471928 -179.747155 -87.544255 179.996364 -0.357013 6.102730 -0.014178 -0.064185 0.250348 0.000000 0.000000 0.000000 0.000000 0.000000 0.000000 0.000000 11.397176 -9.790664 3.005138 67.174792 -15.044855 4.203678 2.202000 50.833555 0.006893 2.822293 0.489103 0.014843 0.066832 -0.106381 -0.000000 0.000000 0.000000 0.000000 0.000000 0.000000 0.000000 
-12.498317 15.810780 -0.152660 -140.021453 89.781909 -113.010534 -12.791174 1.329448 -5.094436 -6.671896 13.211978 -26.337816 -0.998966 3.718814 56.905934 0.134598 -2.004964 -6.589606 0.031600 0.000000 -77.984800 7.088185 0.510572 -0.678237 17.532986 3.352042 -66.312427 2.037738 -4.483701 49.545112 -1.510649 -3.341420 -12.592950 -179.920400 -0.000000 -0.362800 6.194838 -3.349572 8.449089 0.714711 -3.335886 -1.093291 -5.298270 -3.321796 0.393534 8.181355 -13.766998 -11.544813 -2.640234 -0.123999 -1.484960 0.000000 0.000000 0.000000 6.504801 8.703558 1.870790 -56.765149 3.354898 2.777579 -179.777485 -88.008438 179.996843 -0.406858 6.023449 -0.016578 -0.062605 0.247270 0.000000 0.000000 0.000000 0.000000 0.000000 0.000000 0.000000 11.439834 -9.682031 2.976076 66.925984 -14.727484 4.315934 2.208018 50.918555 0.006888 2.817108 0.467738 0.014345 0.067345 -0.106847 -0.000000 0.000000 0.000000 0.000000 0.000000 0.000000 0.000000 
-12.347528 15.809534 -0.135012 -138.285202 89.863632 -111.368274 -12.837393 1.383101 -5.033799 -6.417122 13.109987 -25.850217 -0.908657 3.708496 56.949808 0.140561 -2.044717 -5.541973 -0.005400 -0.000000 -78.284300 7.093904 0.512677 -0.758124 17.537491 3.288892 -65.882044 1.995559 -4.506541 50.349722 -1.601998 -3.461950 -13.778424 -179.780400 -0.000000 -1.519000 6.315464 -3.320767 8.448814 0.743713 -3.306606 -1.097801 -5.284291 -3.294539 0.388014 8.194513 -13.674682 -11.464335 -2.653233 -0.126316 -1.459196 0.000000 0.000000 0.000000 6.486854 8.668854 1.863786 -57.240860 3.788284 3.128910 -179.811948 -88.547614 179.997339 -0.473783 5.956124 -0.019779 -0.060703 0.243547 0.000000 0.000000 0.000000 0.000000 0.000000 0.000000 0.000000 11.508661 -9.594346 2.940753 66.688632 -14.371737 4.408941 2.209851 51.038548 0.006853 2.784368 0.447672 0.013748 0.068003 -0.107613 -0.000000 0.000000 0.000000 0.000000 0.000000 0.000000 0.000000 
-12.197517 15.809367 -0.116221 -137.623063 89.953123 -110.771821 -12.874285 1.441216 -4.963458 -6.202012 12.961338 -25.428107 -0.816788 3.701902 57.019417 0.152905 -2.064490 -4.443641 -0.049200 0.000000 -78.468300 7.109416 0.523846 -0.825144 17.506208 3.241688 -65.440041 1.953927 -4.518840 51.065857 -1.689423 -3.586643 -14.863291 -179.646000 -0.000000 -2.041000 6.406135 -3.286831 8.426081 0.763720 -3.273834 -1.105834 -5.275919 -3.263677 0.386400 8.224377 -13.588201 -11.378553 -2.665211 -0.128630 -1.431416 0.000000 0.000000 0.000000 6.486896 8.628869 1.855979 -57.726795 4.223268 3.513257 -179.849579 -89.145401 179.997945 -0.561391 5.901662 -0.024083 -0.058478 0.239189 0.000000 0.000000 0.000000 0.000000 0.000000 0.000000 0.000000 11.593009 -9.514324 2.900610 66.473498 -13.991894 4.469650 2.207342 51.196355 0.006791 2.725357 0.432249 0.013051 0.068791 -0.108737 -0.000000 0.000000 0.000000 0.000000 0.000000 0.000000 0.000000 
